HIERARCHY
ROOT hips
{
  OFFSET 0 10.6860622 2.3727825e-15
  CHANNELS 6 Xposition Yposition Zposition Yrotation Xrotation Zrotation
  JOINT leftUpperLeg
  {
    OFFSET 0.6642549969 -0.9402397400000004 0
    CHANNELS 3 Yrotation Xrotation Zrotation
    JOINT leftLowerLeg
    {
      OFFSET 0 -3.997221335632195 0
      CHANNELS 3 Yrotation Xrotation Zrotation
      JOINT leftFoot
      {
        OFFSET -0.13777839790000004 -4.6145792000000005 -0.22186036399999998
        CHANNELS 3 Yrotation Xrotation Zrotation
        JOINT leftToes
        {
          OFFSET -0.03777410834999995 -0.9130806927000008 0.85230013
          CHANNELS 3 Yrotation Xrotation Zrotation
          End Site
          {
            OFFSET -0.03777410834999995 -0.9130806927000008 0.85230013
          }
        }
      }
    }
  }
  JOINT rightUpperLeg
  {
    OFFSET -0.6642778626 -0.9402397400000004 0
    CHANNELS 3 Yrotation Xrotation Zrotation
    JOINT rightLowerLeg
    {
      OFFSET 0 -3.997221452859387 0
      CHANNELS 3 Yrotation Xrotation Zrotation
      JOINT rightFoot
      {
        OFFSET 0.1377926176 -4.6145792000000005 -0.22185782299999995
        CHANNELS 3 Yrotation Xrotation Zrotation
        JOINT rightToes
        {
          OFFSET 0.037780746850000047 -0.9130806927000008 0.85230167
          CHANNELS 3 Yrotation Xrotation Zrotation
          End Site
          {
            OFFSET 0.037780746850000047 -0.9130806927000008 0.85230167
          }
        }
      }
    }
  }
  JOINT spine
  {
    OFFSET 0 0.13988381660000015 0
    CHANNELS 3 Yrotation Xrotation Zrotation
    JOINT chest
    {
      OFFSET 0 0.6191039003973773 0
      CHANNELS 3 Yrotation Xrotation Zrotation
      JOINT upperChest
      {
        OFFSET 0 0.9855186130586943 0
        CHANNELS 3 Yrotation Xrotation Zrotation
        JOINT leftShoulder
        {
          OFFSET 0.1807663869 1.5087829790000005 0
          CHANNELS 3 Yrotation Xrotation Zrotation
          JOINT leftUpperArm
          {
            OFFSET 0.5985063006419806 0 0
            CHANNELS 3 Yrotation Xrotation Zrotation
            JOINT leftLowerArm
            {
              OFFSET 2.2993332369501065 0 0
              CHANNELS 3 Yrotation Xrotation Zrotation
              JOINT leftHand
              {
                OFFSET 2.395047042602395 0 0
                CHANNELS 3 Yrotation Xrotation Zrotation
                JOINT leftIndexProximal
                {
                  OFFSET 0.5766295810000004 0.04556643899499946 0.17265095988184
                  CHANNELS 3 Yrotation Xrotation Zrotation
                  JOINT leftIndexIntermediate
                  {
                    OFFSET 0.2957229000000008 -0.019352197700001517 -0.007932640616999987
                    CHANNELS 3 Yrotation Xrotation Zrotation
                    JOINT leftIndexDistal
                    {
                      OFFSET 0.19008243099999922 -0.012484908149998475 -0.002786250786000012
                      CHANNELS 3 Yrotation Xrotation Zrotation
                      End Site
                      {
                        OFFSET 0.19008243099999922 -0.012484908149998475 -0.002786250786000012
                      }
                    }
                  }
                }
                JOINT leftMiddleProximal
                {
                  OFFSET 0.5834975091000001 0.0524350405149987 0.02204081888183999
                  CHANNELS 3 Yrotation Xrotation Zrotation
                  JOINT leftMiddleIntermediate
                  {
                    OFFSET 0.33880573540000003 -0.019871473270000717 -0.00000971183179999946
                    CHANNELS 3 Yrotation Xrotation Zrotation
                    JOINT leftMiddleDistal
                    {
                      OFFSET 0.20676022730000088 -0.012221336379999448 0.0001471936708000235
                      CHANNELS 3 Yrotation Xrotation Zrotation
                      End Site
                      {
                        OFFSET 0.20676022730000088 -0.012221336379999448 0.0001471936708000235
                      }
                    }
                  }
                }
                JOINT leftLittleProximal
                {
                  OFFSET 0.5344154683999995 -0.012880921405001189 -0.24414037221816004
                  CHANNELS 3 Yrotation Xrotation Zrotation
                  JOINT leftLittleIntermediate
                  {
                    OFFSET 0.21758961730000093 -0.011650919939999227 0.011893592810000034
                    CHANNELS 3 Yrotation Xrotation Zrotation
                    JOINT leftLittleDistal
                    {
                      OFFSET 0.1475273964999999 -0.008152365682999818 0.006001092492999946
                      CHANNELS 3 Yrotation Xrotation Zrotation
                      End Site
                      {
                        OFFSET 0.1475273964999999 -0.008152365682999818 0.006001092492999946
                      }
                    }
                  }
                }
                JOINT leftRingProximal
                {
                  OFFSET 0.5799399463000003 0.026911854694997794 -0.12150566991816003
                  CHANNELS 3 Yrotation Xrotation Zrotation
                  JOINT leftRingIntermediate
                  {
                    OFFSET 0.26167887460000006 -0.013480186499999602 0.010996293000000053
                    CHANNELS 3 Yrotation Xrotation Zrotation
                    JOINT leftRingDistal
                    {
                      OFFSET 0.17667108799999987 -0.008990287899999228 0.0055541023999999065
                      CHANNELS 3 Yrotation Xrotation Zrotation
                      End Site
                      {
                        OFFSET 0.17667108799999987 -0.008990287899999228 0.0055541023999999065
                      }
                    }
                  }
                }
                JOINT leftThumbProximal
                {
                  OFFSET 0.11018806699999972 -0.09448718900500053 0.17047963138184
                  CHANNELS 3 Yrotation Xrotation Zrotation
                  JOINT leftThumbIntermediate
                  {
                    OFFSET 0.31062601459999983 -0.08126270900000132 0.15443142000000007
                    CHANNELS 3 Yrotation Xrotation Zrotation
                    JOINT leftThumbDistal
                    {
                      OFFSET 0.21627175790000086 -0.08833193599999878 0.018771167799999988
                      CHANNELS 3 Yrotation Xrotation Zrotation
                      End Site
                      {
                        OFFSET 0.21627175790000086 -0.08833193599999878 0.018771167799999988
                      }
                    }
                  }
                }
              }
            }
          }
        }
        JOINT neck
        {
          OFFSET 0 1.5463305265074576 0
          CHANNELS 3 Yrotation Xrotation Zrotation
          JOINT head
          {
            OFFSET 0 0.8456443600000344 0
            CHANNELS 3 Yrotation Xrotation Zrotation
            JOINT leftEye
            {
              OFFSET 0.30408573140000006 0.5104519199999995 0.1276382305
              CHANNELS 3 Yrotation Xrotation Zrotation
              End Site
              {
                OFFSET 0.30408573140000006 0.5104519199999995 0.1276382305
              }
            }
            JOINT rightEye
            {
              OFFSET -0.30409491089999996 0.5104519199999995 0.1276379445
              CHANNELS 3 Yrotation Xrotation Zrotation
              End Site
              {
                OFFSET -0.30409491089999996 0.5104519199999995 0.1276379445
              }
            }
            JOINT jaw
            {
              OFFSET -3.155239131000001e-7 -0.11984121820000082 0.60178107
              CHANNELS 3 Yrotation Xrotation Zrotation
              End Site
              {
                OFFSET -3.155239131000001e-7 -0.11984121820000082 0.60178107
              }
            }
          }
        }
        JOINT rightShoulder
        {
          OFFSET -0.1807303465 1.5087829790000005 0
          CHANNELS 3 Yrotation Xrotation Zrotation
          JOINT rightUpperArm
          {
            OFFSET -0.5985063796536958 0 0
            CHANNELS 3 Yrotation Xrotation Zrotation
            JOINT rightLowerArm
            {
              OFFSET -2.2993322059002854 0 0
              CHANNELS 3 Yrotation Xrotation Zrotation
              JOINT rightHand
              {
                OFFSET -2.395045314457259 0 0
                CHANNELS 3 Yrotation Xrotation Zrotation
                JOINT rightIndexProximal
                {
                  OFFSET -0.5764487688300002 0.0441371204405987 0.17361932004999997
                  CHANNELS 3 Yrotation Xrotation Zrotation
                  JOINT rightIndexIntermediate
                  {
                    OFFSET -0.29573011380000047 -0.01934826376999843 -0.007698921482999974
                    CHANNELS 3 Yrotation Xrotation Zrotation
                    JOINT rightIndexDistal
                    {
                      OFFSET -0.19008373999999884 -0.012503266380000655 -0.0026365778999999897
                      CHANNELS 3 Yrotation Xrotation Zrotation
                      End Site
                      {
                        OFFSET -0.19008373999999884 -0.012503266380000655 -0.0026365778999999897
                      }
                    }
                  }
                }
                JOINT rightMiddleProximal
                {
                  OFFSET -0.5834852037300005 0.05211639405060153 0.02307162440000001
                  CHANNELS 3 Yrotation Xrotation Zrotation
                  JOINT rightMiddleIntermediate
                  {
                    OFFSET -0.33880114510000003 -0.019952774050000954 0.0002455003561999819
                    CHANNELS 3 Yrotation Xrotation Zrotation
                    JOINT rightMiddleDistal
                    {
                      OFFSET -0.20675694929999955 -0.012273788999999091 0.00030209124000002766
                      CHANNELS 3 Yrotation Xrotation Zrotation
                      End Site
                      {
                        OFFSET -0.20675694929999955 -0.012273788999999091 0.00030209124000002766
                      }
                    }
                  }
                }
                JOINT rightLittleProximal
                {
                  OFFSET -0.5346811737299992 -0.011214256288399227 -0.24363941305000003
                  CHANNELS 3 Yrotation Xrotation Zrotation
                  JOINT rightLittleIntermediate
                  {
                    OFFSET -0.21757715980000092 -0.011771559690000988 0.01201554387
                    CHANNELS 3 Yrotation Xrotation Zrotation
                    JOINT rightLittleDistal
                    {
                      OFFSET -0.1475201849000004 -0.00822055339600003 0.006082065407000015
                      CHANNELS 3 Yrotation Xrotation Zrotation
                      End Site
                      {
                        OFFSET -0.1475201849000004 -0.00822055339600003 0.006082065407000015
                      }
                    }
                  }
                }
                JOINT rightRingProximal
                {
                  OFFSET -0.5800810755299999 0.027657985680600072 -0.12066365025000003
                  CHANNELS 3 Yrotation Xrotation Zrotation
                  JOINT rightRingIntermediate
                  {
                    OFFSET -0.26166445029999974 -0.013623118409999302 0.011164098990000045
                    CHANNELS 3 Yrotation Xrotation Zrotation
                    JOINT rightRingDistal
                    {
                      OFFSET -0.17666387530000027 -0.009072900100000503 0.005668185599999959
                      CHANNELS 3 Yrotation Xrotation Zrotation
                      End Site
                      {
                        OFFSET -0.17666387530000027 -0.009072900100000503 0.005668185599999959
                      }
                    }
                  }
                }
                JOINT rightThumbProximal
                {
                  OFFSET -0.10997596379000074 -0.09577489355940072 0.16989765924999997
                  CHANNELS 3 Yrotation Xrotation Zrotation
                  JOINT rightThumbIntermediate
                  {
                    OFFSET -0.31036620999999986 -0.08229339117999834 0.15440884469999996
                    CHANNELS 3 Yrotation Xrotation Zrotation
                    JOINT rightThumbDistal
                    {
                      OFFSET -0.21631306399999906 -0.08825326400000111 0.018656797720000014
                      CHANNELS 3 Yrotation Xrotation Zrotation
                      End Site
                      {
                        OFFSET -0.21631306399999906 -0.08825326400000111 0.018656797720000014
                      }
                    }
                  }
                }
              }
            }
          }
        }
      }
    }
  }
}
MOTION
Frames: 9
Frame Time: 0.03333333333333333
0 11.682712981546562 0 0 0 0 0 0 -5.826343164929014 -0.3712483961610101 -3.6333298826370974 5.838118207697276 0 0 0 0 0 0 0 0 5.826343164929014 0.3712483961610101 -3.6333298826370974 -5.838118207697276 0 0 0 0 0 0 0 -4.610651315171937 0 0 3.0831277533083026 0 0 0 0 0 1.5275236235667615 0 0 0 0 0 0 0 0 0 0 0 0 0 0 0 0 0 0 0 0 0 0 0 0 0 0 0 0 0 0 0 0 0 0 0 0 0 0 0 0 0 0 0 0 0 0 0 0 0 0 0 0 0 0 0 0 1.5275236235667615 0 0 0 0 0 0 0 0 0 0 0 0 0 0 1.5275236235667615 0 0 0 0 0 0 0 0 0 0 0 0 0 0 0 0 0 0 0 0 0 0 0 0 0 0 0 0 0 0 0 0 0 0 0 0 0 0 0 0 0 0 0 0 0 0 0 0 0 0 0 0 0 0 0
5.366740723532839 -6.392201836086889 -0.054013676208076636 -179.9954064763275 56.99720808400838 0.00846133108222306 13.676147986279725 -74.02803597921846 18.348077028355657 111.50892516143223 88.21074606383333 137.86171436353712 6.541500813370646 50.47554358916912 17.214400166229094 0 0 0 -13.67826633728075 -74.02952536574884 -18.351163591075863 -111.41473589318912 88.20681283194209 -137.76771081888188 -6.548716448235655 50.4747601294251 -17.22165472557913 0 0 0 -0.1428145600427152 28.053837015273235 -0.2356648423010518 -0.8423891795385204 13.873546118962864 -0.8144426709157377 0 0 0 -30.17513951727237 -8.417871131483 5.6063573667860735 -46.68598463126394 -1.4475908291391 3.262796284461553 -7.462430595273587 -11.411357872024672 10.197838700735629 -7.838005574135475 -4.095053596453407 59.82532490906183 0 0 0 0 0 0 0 0 0 0 0 0 0 0 0 0 0 0 0 0 0 0 0 0 0 0 0 0 0 0 0 0 0 0 0 0 0 0 0 0 0 0 0 0 0 0 -31.4725744857143 0 0 -15.001696991480886 0 0 0 0 0 0 0 0 0 0 25.43306497729509 -8.667101964722063 -3.2917435698115343 57.16628667374492 -0.4560821072263815 -3.4289213686517397 12.890461950243672 -10.41470851902384 -11.883117270255704 -3.0606871773795743 -2.4847499535391755 -61.143157661932314 0 0 0 0 0 0 0 0 0 0 0 0 0 0 0 0 0 0 0 0 0 0 0 0 0 0 0 0 0 0 0 0 0 0 0 0 0 0 0 0 0 0 0 0 0
5.366740723532839 -6.392201836086889 -0.029738668837527224 -179.9954066115423 56.996110865733264 0.008461170029749578 13.333832334017488 -74.2684876829497 18.612847517287673 111.50894949728918 88.21074606383333 137.8617371747966 6.541501424704331 50.475548955376524 17.21440175434823 0 0 0 -13.335988775128776 -74.27244324524212 -18.614785060298384 -111.41473589318912 88.20681283194209 -137.76771081888188 -6.548716448235655 50.4747601294251 -17.22165472557913 0 0 0 -0.14335243603879702 28.497971182064564 -0.23677890043807764 -0.8385948341903231 12.767167969154862 -0.7976476621361748 0 0 0 -30.78236342485539 -8.150155000936033 5.519625988255564 -46.0722591140398 -1.5079310758071172 3.268619589025242 -7.229595269158346 -11.438677833875825 9.88408557298715 -7.979305535657557 -3.983327011059357 59.69216127110631 0 0 0 0 0 0 0 0 0 0 0 0 0 0 0 0 0 0 0 0 0 0 0 0 0 0 0 0 0 0 0 0 0 0 0 0 0 0 0 0 0 0 0 0 0 0 -30.666012761102483 0 0 -14.460580132645019 0 0 0 0 0 0 0 0 0 0 25.957754430034957 -8.368063005476976 -3.191163817116419 56.69243001508965 -0.49495922946305076 -3.396185559768244 12.890461950243672 -10.41470851902384 -11.883117270255704 -2.9462232645161315 -2.39568846634649 -60.86421466976945 0 0 0 0 0 0 0 0 0 0 0 0 0 0 0 0 0 0 0 0 0 0 0 0 0 0 0 0 0 0 0 0 0 0 0 0 0 0 0 0 0 0 0 0 0
5.366740723532839 -6.392201836086889 -0.005463661466977804 -179.9954066115423 56.996110865733264 0.008461170029749578 12.982139549870908 -74.50849715214217 18.88702319044374 111.50894949728918 88.21074606383333 137.8617371747966 6.541500813370646 50.47554358916912 17.214400166229094 0 0 0 -12.984262177729821 -74.5149426268101 -18.887888269868412 -111.41495453199046 88.20681283194209 -137.76793211728304 -6.548716448235655 50.4747601294251 -17.22165472557913 0 0 0 -0.1439024269643396 28.942198966569634 -0.2379031398938302 -0.8351420104001497 11.659126219620015 -0.7809717487679153 0 0 0 -31.3899383803785 -7.883212624312274 5.430039474640047 -45.45823965580179 -1.568357870898164 3.273797980656282 -6.996551793651941 -11.46474683603177 9.570142700601236 -8.120855727816505 -3.871921089061097 59.55873709081506 0 0 0 0 0 0 0 0 0 0 0 0 0 0 0 0 0 0 0 0 0 0 0 0 0 0 0 0 0 0 0 0 0 0 0 0 0 0 0 0 0 0 0 0 0 0 -29.856579079446742 0 0 -13.91862827428458 0 0 0 0 0 0 0 0 0 0 26.482828532140132 -8.069806197097778 -3.0878483481795858 56.218455815355185 -0.5335740328035843 -3.363119651589826 12.890461950243672 -10.41470938709894 -11.883118119727676 -2.831320206460613 -2.307172366015398 -60.58506220796091 0 0 0 0 0 0 0 0 0 0 0 0 0 0 0 0 0 0 0 0 0 0 0 0 0 0 0 0 0 0 0 0 0 0 0 0 0 0 0 0 0 0 0 0 0
5.366740723532839 -6.392201836086889 0.018811077511300307 -179.99540661103967 56.996117135460075 0.008461170955633304 12.62065294843124 -74.74807431263488 19.171031343704755 111.50894949728918 88.21074606383333 137.8617371747966 6.54150203603813 50.47555432158454 17.21440334246765 0 0 0 -12.62263809399405 -74.75698251070993 -19.170921910782763 -111.4147645627205 88.20681283194209 -137.76774065546806 -6.548716448235655 50.4747601294251 -17.22165472557913 0 0 0 -0.14446481151830534 29.38652688954225 -0.23903688613716778 -0.8320268802126866 10.549623688355013 -0.7644055839352587 0 0 0 -31.997839182236373 -7.6170935417571215 5.337612755774054 -44.843955215897225 -1.6288612530845608 3.278331440591246 -6.763313034820285 -11.489567151658106 9.256023718382288 -8.262654914728765 -3.7608378477948357 59.42504540502101 0 0 0 0 0 0 0 0 0 0 0 0 0 0 0 0 0 0 0 0 0 0 0 0 0 0 0 0 0 0 0 0 0 0 0 0 0 0 0 0 0 0 0 0 0 0 -29.04435391996326 0 0 -13.375866640719565 0 0 0 0 0 0 0 0 0 0 27.008292916448138 -7.772375128686237 -2.9818091583195017 55.744323503064564 -0.5719231147634712 -3.329727017985228 12.890462796441849 -10.41470851902384 -11.883117270255704 -2.7159803280993726 -2.219207959217438 -60.30573081624781 0 0 0 0 0 0 0 0 0 0 0 0 0 0 0 0 0 0 0 0 0 0 0 0 0 0 0 0 0 0 0 0 0 0 0 0 0 0 0 0 0 0 0 0 0
5.366740723532839 -6.392201836086889 0.04308608488184973 -179.9954066115423 56.996110865733264 0.008461170029749578 12.24893770733277 -74.98716371301252 19.465308368283672 111.50887239333012 88.21074606383333 137.86166137865763 6.541500813370646 50.47554358916912 17.214398578110245 0 0 0 -12.25072427031069 -74.9985720123298 -19.46430576570093 -111.41473589318912 88.20681283194209 -137.76771081888188 -6.548715224246055 50.47475476330724 -17.221652829480334 0 0 0 -0.145039836467037 29.830933948686642 -0.24018034214377781 -0.8292450900349138 9.43886548343118 -0.7479387085455307 0 0 0 -32.60607278597019 -7.351848995579102 5.242360828834144 -44.229465978247376 -1.6894310468692182 3.2822162853123373 -6.529898347797326 -11.513141069820064 8.941748372601523 -8.404703089271768 -3.650079311147012 59.29109450951154 0 0 0 0 0 0 0 0 0 0 0 0 0 0 0 0 0 0 0 0 0 0 0 0 0 0 0 0 0 0 0 0 0 0 0 0 0 0 0 0 0 0 0 0 0 0 -28.229403066854253 0 0 -12.832318806649806 0 0 0 0 0 0 0 0 0 0 27.534127273587558 -7.475815116008675 -2.873058192020167 55.27004360990542 -0.6100042460935606 -3.296011834649342 12.890461950243672 -10.41470851902384 -11.883117270255704 -2.600208915187496 -2.1317987828516545 -60.02621813328308 0 0 0 0 0 0 0 0 0 0 0 0 0 0 0 0 0 0 0 0 0 0 0 0 0 0 0 0 0 0 0 0 0 0 0 0 0 0 0 0 0 0 0 0 0
5.366740723532839 -6.392201836086889 0.06736109225239913 -179.9954066115423 56.996110865733264 0.008461170029749578 11.866530232271048 -75.22577328496202 19.770327410531674 111.50892516143223 88.21074606383333 137.86171436353712 6.541500813370646 50.47554358916912 17.214400166229094 0 0 0 -11.867960151319451 -75.23965373000031 -19.768551385227617 -111.4146817292038 88.20681283194209 -137.76765549748498 -6.548716448235655 50.4747601294251 -17.22165472557913 0 0 0 -0.14562869367316153 30.275420432108092 -0.24133634785904595 -0.8267916299938436 8.32705725042528 -0.7315607537609972 0 0 0 -33.21460996155959 -7.087530215612873 5.144296649912971 -43.614740033954206 -1.7500577166104625 3.285451633607714 -6.296308142753402 -11.535456953578345 8.627315178002597 -8.546999398188895 -3.5396494342460656 59.156871542610496 0 0 0 0 0 0 0 0 0 0 0 0 0 0 0 0 0 0 0 0 0 0 0 0 0 0 0 0 0 0 0 0 0 0 0 0 0 0 0 0 0 0 0 0 0 0 -27.41178980006772 0 0 -12.288011106360543 0 0 0 0 0 0 0 0 0 0 28.060340619371186 -7.1801667538804095 -2.761606210256167 54.795699549182345 -0.6478083661818075 -3.261975566360877 12.890461950243672 -10.41470851902384 -11.883117270255704 -2.484009912998702 -2.0449488085518417 -59.74652247442393 0 0 0 0 0 0 0 0 0 0 0 0 0 0 0 0 0 0 0 0 0 0 0 0 0 0 0 0 0 0 0 0 0 0 0 0 0 0 0 0 0 0 0 0 0
5.366740723532839 -6.392201836086889 0.09163583123067724 -179.99540661254758 56.996104596007505 0.008461168943330065 11.472913504427739 -75.4638569713602 20.08657525316326 111.50892516143223 88.21074606383333 137.86171436353712 6.541500813370646 50.47554358916912 17.214398578110245 0 0 0 -11.473889740219057 -75.48022094880821 -20.084160412182968 -111.41473589318912 88.20681283194209 -137.76771081888188 -6.548716448235655 50.4747601294251 -17.22165472557913 0 0 0 -0.14622954510684846 30.719940857910753 -0.24250086569212945 -0.8246640956425094 7.214408639026512 -0.7152619502666911 0 0 0 -33.82342585309931 -6.824184561137244 5.043436666857201 -42.99988096280856 -1.810727988735502 3.2880363685263854 -6.062563078093666 -11.556519735223672 8.312745389253303 -8.689539607733042 -3.4295504673170862 59.02238010067162 0 0 0 0 0 0 0 0 0 0 0 0 0 0 0 0 0 0 0 0 0 0 0 0 0 0 0 0 0 0 0 0 0 0 0 0 0 0 0 0 0 0 0 0 0 0 -26.59158652228826 0 0 -11.742958675151034 0 0 0 0 0 0 0 0 0 0 28.586923708429037 -6.88547798316234 -2.6474671183657814 54.32123364253098 -0.6853377267847425 -3.2276226155639045 12.890461950243672 -10.41470851902384 -11.883117270255704 -2.367387316192977 -1.9586607339993103 -59.46663693047199 0 0 0 0 0 0 0 0 0 0 0 0 0 0 0 0 0 0 0 0 0 0 0 0 0 0 0 0 0 0 0 0 0 0 0 0 0 0 0 0 0 0 0 0 0
5.366740723532839 -6.392201836086889 0.11591083860122668 -179.9954066115423 56.996110865733264 0.008461170029749578 11.067552232863665 -75.7013518203213 20.414610547286767 111.50892516143223 88.21074606383333 137.86171436353712 6.541500813370646 50.47554358916912 17.214400166229094 0 0 0 -11.067933361059072 -75.7202387480442 -20.411694843226012 -111.41473589318912 88.20681283194209 -137.76771081888188 -6.548716448235655 50.4747601294251 -17.22165472557913 0 0 0 -0.14684478670218148 31.16451265981813 -0.2436774678953318 -0.8228582813266511 6.101131586859804 -0.6990322891415832 0 0 0 -34.43251564239993 -6.5618624176053535 4.939798226282847 -42.38489535296459 -1.8714338204025642 3.2899712703320363 -5.828672214529932 -11.576327392262558 7.9980509927708345 -8.832328262878175 -3.319781460138438 58.88763844396742 0 0 0 0 0 0 0 0 0 0 0 0 0 0 0 0 0 0 0 0 0 0 0 0 0 0 0 0 0 0 0 0 0 0 0 0 0 0 0 0 0 0 0 0 0 0 -25.76887262171803 0 0 -11.197187340475399 0 0 0 0 0 0 0 0 0 0 29.11387326147878 -6.591790757804195 -2.530655388093251 53.84669900545488 -0.7225845464196702 -3.1929558853312296 12.890461950243672 -10.41470851902384 -11.883117270255704 -2.250344484233838 -1.8729387594708153 -59.18657822965261 0 0 0 0 0 0 0 0 0 0 0 0 0 0 0 0 0 0 0 0 0 0 0 0 0 0 0 0 0 0 0 0 0 0 0 0 0 0 0 0 0 0 0 0 0
